<?xml version="1.0" encoding="iso-8859-1"?>
<!-- Generator: Adobe Illustrator 19.0.0, SVG Export Plug-In . SVG Version: 6.00 Build 0)  -->
<svg version="1.1" id="Layer_1" xmlns="http://www.w3.org/2000/svg" xmlns:xlink="http://www.w3.org/1999/xlink" x="0px" y="0px"
	 viewBox="0 0 512 512" style="enable-background:new 0 0 512 512;" xml:space="preserve">
<g>
	<path style="fill:#B12621;" d="M194.207,441.379c-19.5,0-35.31,15.81-35.31,35.31c0,19.5,15.81,35.31,35.31,35.31H512v-70.621
		H194.207z"/>
	<path style="fill:#DD342E;" d="M194.207,0c-19.5,0-35.31,15.81-35.31,35.31v196.758c26.289-7.053,54.14-14.115,75.82-19.509
		c24.7-6.144,44.42,21.274,30.411,42.531c-6.444,9.781-16.181,17.337-27.948,20.957l-42.982,13.233
		c-20.983,6.453-35.302,25.838-35.302,47.793v70.674v68.943c0-19.5,15.81-35.31,35.31-35.31H512V0H194.207z"/>
	<path style="fill:#EDEBDA;" d="M229.517,176.552h211.862V35.31H229.517V176.552z"/>
	<g>
		<path style="fill:#CEC9AE;" d="M361.931,97.103h-52.966c-4.873,0-8.828-3.955-8.828-8.828c0-4.873,3.955-8.828,8.828-8.828h52.966
			c4.873,0,8.828,3.955,8.828,8.828C370.759,93.149,366.804,97.103,361.931,97.103"/>
		<path style="fill:#CEC9AE;" d="M388.414,132.414H282.483c-4.873,0-8.828-3.955-8.828-8.828s3.955-8.828,8.828-8.828h105.931
			c4.873,0,8.828,3.955,8.828,8.828S393.287,132.414,388.414,132.414"/>
	</g>
	<path style="fill:#DD342E;" d="M467.862,485.517H203.034c-4.873,0-8.828-3.955-8.828-8.828c0-4.873,3.955-8.828,8.828-8.828
		h264.828c4.873,0,8.828,3.955,8.828,8.828C476.69,481.563,472.735,485.517,467.862,485.517"/>
	<path style="fill:#FABA81;" d="M234.743,212.552c-27.975,6.956-78.301,21.38-105.384,29.237
		c-12.147,3.522-23.508,9.322-33.474,17.099c-5.058,3.955-10.496,7.398-16.216,10.302l0,0
		c-12.579,6.374-22.087,17.505-26.474,30.897c-3.107,9.472-3.672,10.169-6.85,11.22L0,326.622v97.103h11.697
		c23.022,0,59.524,6.674,81.638,13.109c10.266,2.984,21.018,4.546,31.929,4.546h33.633V337.074c0-21.954,14.318-41.34,35.302-47.801
		l42.982-13.224c11.785-3.628,21.53-11.193,27.975-21.001C279.128,233.809,259.425,206.417,234.743,212.552"/>
	<path style="fill:#EDEBDA;" d="M225.103,247.172c17.064,0,30.897-9.878,30.897-22.069c0-4.299-1.792-8.28-4.776-11.679
		c-4.952-1.836-10.575-2.339-16.508-0.865c-11.944,2.966-25.777,6.453-40.174,10.161c-0.124,0.794-0.335,1.562-0.335,2.383
		C194.207,237.294,208.04,247.172,225.103,247.172"/>
</g>
<g>
</g>
<g>
</g>
<g>
</g>
<g>
</g>
<g>
</g>
<g>
</g>
<g>
</g>
<g>
</g>
<g>
</g>
<g>
</g>
<g>
</g>
<g>
</g>
<g>
</g>
<g>
</g>
<g>
</g>
</svg>
